:version 1.10
:name ASF
:units
  mass 1
  length 1
  angle deg
:documentation
  ASF file generated by Kaydara
:root
  axis xyz
  order  tx ty tz rx ry rz
  position 0 0 0
  orientation 0 0 0
:bonedata
  begin
    id 1
    name SpineDummy
    direction 0.999998 -0.00179978 1.38929e-006
    length 3.60008
    axis 0 0 0 xyz
  end
  begin
    id 2
    name Spine
    direction 0.964365 0.262802 0.0305839
    length 8.13928
    axis 1.33928 -1.75354 15.2838 xyz
    dof rx ry rz
  end
  begin
    id 3
    name Spine1
    direction 0.811168 0.572065 0.12144
    length 7.14954
    axis 2.2224 -6.9761 35.2157 xyz
    dof rx ry rz
  end
  begin
    id 4
    name Neck
    direction 0 0 0
    length 0
    axis 2.2224 -6.9761 35.2157 xyz
    dof rx ry rz
  end
  begin
    id 5
    name HeadDummy
    direction 0.810939 0.572387 0.121455
    length 3.55534
    axis 2.2224 -6.9761 35.2157 xyz
  end
  begin
    id 6
    name Head
    direction 0.998226 -0.000232542 0.0595419
    length 7.35666
    axis -3.03688 -3.41352 -0.0133467 xyz
    dof rx ry rz
  end
  begin
    id 7
    name R_ClavicleDummy
    direction 0.531669 -0.194489 -0.824319
    length 2.49392
    axis 2.2224 -6.9761 35.2157 xyz
  end
  begin
    id 8
    name R_Clavicle
    direction -0.155119 0.0480802 -0.986725
    length 4.485
    axis -54.2764 80.6538 162.779 xyz
    dof rx ry rz
  end
  begin
    id 9
    name R_UpperArm
    direction -0.955567 0.200068 -0.216484
    length 10.1122
    axis -72.9943 12.5026 168.175 xyz
    dof rx ry rz
  end
  begin
    id 10
    name R_Forearm
    direction -0.61433 0.385743 0.688332
    length 9.39148
    axis -117.015 -43.4982 147.875 xyz
    dof rx ry rz
  end
  begin
    id 11
    name R_Hand
    direction -0.699429 0.0170333 0.714499
    length 3.66324
    axis -45.0303 -36.7097 175.478 xyz
    dof rx ry rz
  end
  begin
    id 12
    name L_ClavicleDummy
    direction 0.40287 -0.36502 0.839319
    length 2.49392
    axis 2.2224 -6.9761 35.2157 xyz
  end
  begin
    id 13
    name L_Clavicle
    direction -0.231271 -0.0726419 0.970174
    length 4.485
    axis 18.4357 -75.9711 -162.563 xyz
    dof rx ry rz
  end
  begin
    id 14
    name L_UpperArm
    direction -0.917494 0.144359 0.370629
    length 10.1122
    axis 56.0417 -21.7544 171.058 xyz
    dof rx ry rz
  end
  begin
    id 15
    name L_Forearm
    direction -0.496786 0.615074 -0.612281
    length 9.39148
    axis 89.8094 37.7546 128.927 xyz
    dof rx ry rz
  end
  begin
    id 16
    name L_Hand
    direction -0.409932 0.64962 -0.640274
    length 3.66324
    axis -0.424369 32.133 128.52 xyz
    dof rx ry rz
  end
  begin
    id 17
    name L_ThighDummy
    direction -1.84081e-006 1.87549e-006 1
    length 3.13049
    axis 0 0 0 xyz
  end
  begin
    id 18
    name L_Thigh
    direction -0.947739 0.307978 0.083308
    length 17.9961
    axis 173.219 -4.77873 161.998 xyz
    dof rx ry rz
  end
  begin
    id 19
    name L_Calf
    direction -0.728814 -0.684427 0.0197583
    length 13.3367
    axis 167.331 -1.13214 -136.799 xyz
    dof rx ry rz
  end
  begin
    id 20
    name L_Foot
    direction -0.9028 0.418719 0.0981191
    length 5.8674
    axis 163.436 11.5135 -155.37 xyz
    dof rx ry rz
  end
  begin
    id 21
    name L_Toe0
    direction -0.35341 0.886259 0.299411
    length 4.75286
    axis 169.316 -17.4222 111.74 xyz
    dof rx ry rz
  end
  begin
    id 22
    name R_ThighDummy
    direction 9.32778e-007 -8.82053e-007 -1
    length 3.13049
    axis 0 0 0 xyz
  end
  begin
    id 23
    name R_Thigh
    direction -0.925064 0.37528 -0.0585023
    length 17.9961
    axis -178.698 3.35385 157.919 xyz
    dof rx ry rz
  end
  begin
    id 24
    name R_Calf
    direction -0.68969 -0.718776 -0.0876886
    length 13.3367
    axis -160.504 5.03065 -133.817 xyz
    dof rx ry rz
  end
  begin
    id 25
    name R_Foot
    direction -0.857405 0.418858 -0.299022
    length 5.8674
    axis -161.328 4.38911 -154.413 xyz
    dof rx ry rz
  end
  begin
    id 26
    name R_Toe0
    direction -0.100745 0.952789 -0.286433
    length 4.75286
    axis 171.683 16.6445 96.0359 xyz
    dof rx ry rz
  end
:hierarchy
  begin
    root SpineDummy L_ThighDummy R_ThighDummy
    SpineDummy Spine
    Spine Spine1
    Spine1 Neck
    Neck HeadDummy R_ClavicleDummy L_ClavicleDummy
    HeadDummy Head
    R_ClavicleDummy R_Clavicle
    R_Clavicle R_UpperArm
    R_UpperArm R_Forearm
    R_Forearm R_Hand
    L_ClavicleDummy L_Clavicle
    L_Clavicle L_UpperArm
    L_UpperArm L_Forearm
    L_Forearm L_Hand
    L_ThighDummy L_Thigh
    L_Thigh L_Calf
    L_Calf L_Foot
    L_Foot L_Toe0
    R_ThighDummy R_Thigh
    R_Thigh R_Calf
    R_Calf R_Foot
    R_Foot R_Toe0
  end

:SAMPLES-PER-SECOND 30
:FULLY-SPECIFIED
:DEGREES
205
root  0.751618 30.352 -13.2288 -164.89 -10.8542 88.0889
Spine  -3.89739 -13.6639 0.866014
Spine1  -1.83594 2.01273 1.47551
Neck  3.97569e-016 0 -2.38542e-015
Head  -34.6674 4.81031 7.75339
R_Clavicle  0.390928 -20.0647 0.569653
R_UpperArm  32.9573 -10.8799 44.0737
R_Forearm  -11.0923 -43.2568 25.484
R_Hand  1.27981 7.09802 -0.236975
L_Clavicle  -0.34756 9.95809 1.28622
L_UpperArm  -34.2941 -14.8995 15.5084
L_Forearm  -10.3297 4.95571 5.73591
L_Hand  -0.394012 7.40871 -3.2631
L_Thigh  -26.1147 -0.699163 10.3086
L_Calf  -13.9437 -1.8003 13.7666
L_Foot  1.75613 10.2192 -2.59596
L_Toe0  0.221329 0.0349445 -5.97545
R_Thigh  17.5413 11.9119 0.725065
R_Calf  9.78221 -14.0364 -50.7546
R_Foot  0.439799 4.61046 12.1192
R_Toe0  -1.78853 -0.272789 -17.3235
206
root  0.202562 31.3621 -13.8452 -179.436 -9.42334 89.9067
Spine  -3.425 -16.2029 -2.40781
Spine1  -1.43531 5.87326 1.57388
Neck  3.97569e-016 0 -2.38542e-015
Head  -31.9164 5.81635 9.42159
R_Clavicle  0.383508 -19.5209 0.595805
R_UpperArm  27.2288 -8.68444 49.9747
R_Forearm  -7.46773 -41.244 23.0519
R_Hand  1.26661 6.30216 0.87797
L_Clavicle  -0.332211 7.48965 1.62727
L_UpperArm  -42.5721 -16.5108 22.8357
L_Forearm  -11.261 5.27283 6.10998
L_Hand  -0.351344 7.41499 -2.88749
L_Thigh  -18.1035 1.34104 5.62971
L_Calf  -9.94044 -2.32564 17.7731
L_Foot  0.75711 8.4892 -4.85066
L_Toe0  -1.89802 0.0919317 -4.7718
R_Thigh  12.0659 9.61173 1.3113
R_Calf  9.30571 -11.4899 -39.0574
R_Foot  -0.483297 2.07191 10.9536
R_Toe0  -1.78853 -0.27279 -17.3235
207
root  -0.238096 31.9689 -14.6263 166.405 -8.66154 91.8499
Spine  -2.87751 -17.3497 -4.89658
Spine1  -1.0819 8.43373 1.64728
Neck  3.97569e-016 0 -2.38542e-015
Head  -30.659 6.23682 10.6947
R_Clavicle  0.383378 -17.5804 1.24872
R_UpperArm  13.7179 -4.29143 57.6281
R_Forearm  8.05781 -33.4734 20.1812
R_Hand  1.04079 5.12239 0.899058
L_Clavicle  -0.316105 5.35022 1.77885
L_UpperArm  -50.6357 -16.172 29.4602
L_Forearm  -11.9273 6.12864 7.11818
L_Hand  -0.263289 7.26887 -2.14007
L_Thigh  -8.68283 1.13884 0.407947
L_Calf  -5.94153 -2.24315 17.0822
L_Foot  2.20963 10.6232 -1.32482
L_Toe0  -4.55058 0.262816 -3.39548
R_Thigh  8.96086 3.98446 2.55902
R_Calf  6.78844 -8.15343 -26.4024
R_Foot  -1.97747 -1.83418 10.6984
R_Toe0  -1.78853 -0.272791 -17.3235
208
root  -0.571272 32.3165 -15.5838 153.926 -8.43476 93.7109
Spine  -3.13539 -17.2927 -6.01722
Spine1  -1.32338 10.2573 1.20706
Neck  3.97569e-016 0 -2.38542e-015
Head  -30.0689 6.12053 10.9274
R_Clavicle  0.42753 -14.6679 2.22254
R_UpperArm  3.01604 1.84603 65.142
R_Forearm  24.8152 -24.4707 20.172
R_Hand  0.671308 4.19942 -1.02346
L_Clavicle  -0.343653 4.24534 2.17817
L_UpperArm  -58.9027 -16.0586 34.6497
L_Forearm  -10.6181 6.07317 7.05495
L_Hand  -0.168402 7.19922 -1.30123
L_Thigh  -3.03656 -1.05012 -5.51431
L_Calf  0.0656072 -1.95769 14.6747
L_Foot  2.7036 8.01783 2.79532
L_Toe0  -3.04863 0.257113 -3.31505
R_Thigh  9.49041 -3.26418 5.33222
R_Calf  1.23495 -4.03162 -12.6569
R_Foot  -2.41463 -3.89308 8.30132
R_Toe0  -1.78853 -0.272792 -17.3235
209
root  -0.839994 32.3725 -16.5984 141.852 -7.95136 94.6218
Spine  -3.43164 -15.1394 -6.89546
Spine1  -1.68982 10.3733 0.5691
Neck  3.97569e-016 0 -2.38542e-015
Head  -29.4917 6.11955 10.843
R_Clavicle  0.498226 -10.9903 2.88939
R_UpperArm  10.2973 7.47385 70.512
R_Forearm  28.7232 -21.5081 19.3176
R_Hand  0.202381 3.44666 -4.70362
L_Clavicle  -0.466676 4.14593 3.35089
L_UpperArm  -67.2308 -18.103 38.508
L_Forearm  -8.15163 5.35086 6.20784
L_Hand  -0.100773 7.31055 -0.694497
L_Thigh  0.238646 -3.28774 -10.9804
L_Calf  9.89384 -1.7903 13.1682
L_Foot  0.85728 -0.184311 4.44233
L_Toe0  7.36693 -0.980936 -0.528446
R_Thigh  10.4907 -7.80838 9.57972
R_Calf  -0.93594 0.530236 1.62488
R_Foot  -1.91269 -3.54711 5.92603
R_Toe0  -1.78853 -0.272792 -17.3235
210
root  -1.08298 31.9524 -17.4617 129.105 -6.88502 94.3937
Spine  -3.35128 -10.851 -7.22106
Spine1  -1.94169 8.15106 -0.967826
Neck  3.97569e-016 0 -2.38542e-015
Head  -28.2927 6.62967 11.4148
R_Clavicle  0.610444 -6.41121 3.48263
R_UpperArm  22.3275 11.911 72.4531
R_Forearm  28.3944 -21.3963 18.9803
R_Hand  -0.232201 3.22165 -9.2359
L_Clavicle  -0.645203 3.96197 5.0358
L_UpperArm  -75.0588 -22.195 42.8078
L_Forearm  -5.91985 5.0117 5.81202
L_Hand  -0.0969124 7.37939 -0.671532
L_Thigh  1.39166 -4.47645 -16.3257
L_Calf  17.3394 -2.0571 15.0394
L_Foot  0.398011 -2.75913 5.69409
L_Toe0  15.9786 -3.6601 7.39935
R_Thigh  8.31763 -7.24997 14.7209
R_Calf  2.05393 4.63193 14.5414
R_Foot  -2.41485 -5.56499 4.88171
R_Toe0  -1.78853 -0.272793 -17.3235
211
root  -1.27891 31.0881 -17.9528 117.019 -5.31175 94.1769
Spine  -3.58047 -7.67388 -5.75673
Spine1  -2.39248 6.41663 -3.55062
Neck  3.97569e-016 0 -2.38542e-015
Head  -26.1143 7.51904 12.6136
R_Clavicle  0.807321 -0.843872 4.18906
R_UpperArm  30.1327 16.6282 71.1168
R_Forearm  28.0465 -22.292 19.7843
R_Hand  -0.508433 3.45902 -12.5233
L_Clavicle  -0.851263 2.48481 6.57657
L_UpperArm  -82.0414 -26.276 48.7679
L_Forearm  -3.5987 6.06929 7.05525
L_Hand  -0.158238 7.21954 -1.22036
L_Thigh  -0.313225 -5.73539 -23.0329
L_Calf  14.8041 -2.65342 19.6277
L_Foot  5.92226 7.35887 14.7352
L_Toe0  10.4583 -2.02464 4.66127
R_Thigh  5.05528 -4.50815 19.2057
R_Calf  5.3487 6.76393 21.548
R_Foot  -2.37062 -7.0305 1.77245
R_Toe0  -1.78853 -0.272794 -17.3235
212
root  -1.42023 30.0782 -18.0456 107.102 -3.18209 94.566
Spine  -4.21666 -7.67537 -4.04263
Spine1  -2.94549 7.71436 -4.34542
Neck  3.97569e-016 0 -2.38542e-015
Head  -24.2135 8.78794 13.6539
R_Clavicle  0.979761 5.19276 4.44252
R_UpperArm  33.2912 20.829 68.2145
R_Forearm  25.5058 -23.1298 20.3698
R_Hand  -0.446648 3.66193 -12.0269
L_Clavicle  -1.10358 -0.277329 7.81761
L_UpperArm  -87.2586 -28.7469 53.6677
L_Forearm  -0.127366 8.33897 9.75163
L_Hand  -0.230712 6.93101 -1.90806
L_Thigh  -3.77834 -7.23264 -29.5339
L_Calf  8.31898 -3.37247 25.3235
L_Foot  11.2154 12.3283 24.9863
L_Toe0  2.05099 -0.245645 1.01943
R_Thigh  6.21248 -2.95378 22.4113
R_Calf  7.41069 6.13392 19.4255
R_Foot  -1.05418 -4.44868 -1.43341
R_Toe0  -1.78853 -0.272794 -17.3235
213
root  -1.49248 29.3121 -17.751 98.9547 -1.35137 95.1901
Spine  -4.60169 -8.96344 -4.52897
Spine1  -3.02211 10.1205 -1.59164
Neck  3.97569e-016 0 -2.38542e-015
Head  -24.2366 10.2688 14.2939
R_Clavicle  1.17588 9.50545 4.91816
R_UpperArm  36.861 21.7056 65.4615
R_Forearm  18.6855 -20.9515 18.5524
R_Hand  -0.124006 3.4889 -8.33907
L_Clavicle  -1.36604 -2.42945 8.84195
L_UpperArm  -89.4138 -29.5932 52.7961
L_Forearm  3.37817 9.83777 11.561
L_Hand  -0.287324 6.51084 -2.52208
L_Thigh  -8.15826 -9.22659 -32.3262
L_Calf  4.7889 -3.34727 25.1764
L_Foot  12.1134 10.165 30.3966
L_Toe0  1.3485 -0.0503992 -2.03313
R_Thigh  10.9009 -2.43123 23.8534
R_Calf  12.2981 4.2652 13.3639
R_Foot  -1.87086 -5.6702 1.43711
R_Toe0  -1.78853 -0.272795 -17.3235
214
root  -1.58105 29.1201 -17.1742 92.0379 -0.727182 94.6165
Spine  -4.55147 -8.19821 -6.27573
Spine1  -2.828 11.9188 1.67289
Neck  3.97569e-016 0 -2.38542e-015
Head  -25.4924 10.887 15.1957
R_Clavicle  1.35156 8.85268 5.5616
R_UpperArm  43.7646 19.7824 63.5344
R_Forearm  11.0766 -15.5647 13.3522
R_Hand  0.183943 3.67047 -5.21976
L_Clavicle  -1.48565 -2.00089 9.80171
L_UpperArm  -87.5283 -28.4892 45.7617
L_Forearm  4.41987 9.11033 10.6805
L_Hand  -0.334899 5.73673 -3.19578
L_Thigh  -12.1878 -10.1319 -29.653
L_Calf  2.80708 -2.27023 16.6578
L_Foot  9.27093 7.06323 26.2339
L_Toe0  3.34075 -0.939502 6.06991
R_Thigh  15.8744 -1.84838 23.3984
R_Calf  17.2476 3.45991 10.8155
R_Foot  -2.2619 -5.23126 4.56524
R_Toe0  -1.78853 -0.272795 -17.3235
